# xmcd
#
# Track frame offsets:
#	150
#	12570
#	25622
#	38642
#	50202
#	62715
#	73940
#	87410
#	101690
#	114480
#	128277
#	138932
#	150317
#	157012
#
# Disc length: 2275 seconds
# Revision: 0
# Processed by: cddbd v1.5.2PL0 Copyright (c) Steve Scherf et al.
# Submitted via: dBpowerAMP V12.0
#
DISCID=b508e10e
DTITLE=Various Artist - Devil in a Blue Dress
DYEAR=1995
DGENRE=R&B
TTITLE0=T-Bone Walker - West Side Baby
TTITLE1=Jimmy Witherspoon - Ain't Nobody's Business
TTITLE2=Duke Ellington - Hy-Ah Su
TTITLE3=Roy Milton - Hop, Skip And Jump
TTITLE4=Wynonie Harris - Good Rockin' Tonight
TTITLE5=Pee Wee Crayton - Blues After Hours
TTITLE6=Bull Moose Jackson - I Can't go on Without You
TTITLE7=Thelonious Monk - 'Round Midnight
TTITLE8=Amos Milburn - Chicken Shack Boogie
TTITLE9=Memphis Slim - Messin' Around
TTITLE10=Lloyd Glenn - Chica Boo
TTITLE11=Elmer Bernstein - Theme From Devil in a Blue Dress
TTITLE12=Elmer Bernstein - Malibu Chase
TTITLE13=Elmer Bernstein - End Credits
EXTD=
EXTT0=
EXTT1=
EXTT2=
EXTT3=
EXTT4=
EXTT5=
EXTT6=
EXTT7=
EXTT8=
EXTT9=
EXTT10=
EXTT11=
EXTT12=
EXTT13=
PLAYORDER=
